<svg width="39" height="38" viewBox="0 0 39 38" fill="none" xmlns="http://www.w3.org/2000/svg">
<path fill-rule="evenodd" clip-rule="evenodd" d="M5.25 5.9375C5.90584 5.9375 6.4375 6.46916 6.4375 7.125V29.6875H33.75C34.4058 29.6875 34.9375 30.2192 34.9375 30.875C34.9375 31.5308 34.4058 32.0625 33.75 32.0625H5.25C4.59416 32.0625 4.0625 31.5308 4.0625 30.875V7.125C4.0625 6.46916 4.59416 5.9375 5.25 5.9375Z" fill="white"/>
<path fill-rule="evenodd" clip-rule="evenodd" d="M32.2147 8.66031C32.6784 9.12406 32.6784 9.87594 32.2147 10.3397L20.3397 22.2147C19.8759 22.6784 19.1241 22.6784 18.6603 22.2147L14.75 18.3044L6.08969 26.9647C5.62594 27.4284 4.87406 27.4284 4.41031 26.9647C3.94656 26.5009 3.94656 25.7491 4.41031 25.2853L13.9103 15.7853C14.3741 15.3216 15.1259 15.3216 15.5897 15.7853L19.5 19.6956L30.5353 8.66031C30.9991 8.19656 31.7509 8.19656 32.2147 8.66031Z" fill="white"/>
<path fill-rule="evenodd" clip-rule="evenodd" d="M24.25 9.5C24.25 8.84416 24.7817 8.3125 25.4375 8.3125H31.375C32.0308 8.3125 32.5625 8.84416 32.5625 9.5V15.4375C32.5625 16.0933 32.0308 16.625 31.375 16.625C30.7192 16.625 30.1875 16.0933 30.1875 15.4375V10.6875H25.4375C24.7817 10.6875 24.25 10.1558 24.25 9.5Z" fill="white"/>
</svg>
