<svg width="24" height="24" viewBox="0 0 24 24" fill="none" xmlns="http://www.w3.org/2000/svg">
<path fill-rule="evenodd" clip-rule="evenodd" d="M10.0332 8.72054C10.3118 9.02706 10.2892 9.5014 9.98267 9.78C9.5346 10.1873 9.22025 10.7206 9.08095 11.3098C8.94166 11.8991 8.98393 12.5167 9.20222 13.0815C9.4205 13.6463 9.80459 14.1318 10.304 14.4742C10.8034 14.8166 11.3947 14.9999 12.0002 15L12.0029 15C12.7477 15.0028 13.4662 14.7251 14.0153 14.222C14.3208 13.9422 14.7952 13.963 15.075 14.2684C15.3548 14.5738 15.334 15.0482 15.0286 15.328C14.2017 16.0855 13.12 16.5039 11.9986 16.5C11.0909 16.4996 10.2044 16.2247 9.45571 15.7113C8.70664 15.1977 8.13051 14.4695 7.80308 13.6223C7.47565 12.7751 7.41224 11.8487 7.62119 10.9648C7.83013 10.0809 8.30165 9.2809 8.97376 8.67C9.28028 8.3914 9.75461 8.41403 10.0332 8.72054Z" fill="white"/>
<path fill-rule="evenodd" clip-rule="evenodd" d="M7.60689 6.09322C7.79358 6.46297 7.64518 6.91406 7.27542 7.10075C5.49276 8.00082 4.21533 9.30466 3.37972 10.3958C2.96317 10.9398 2.6606 11.4255 2.46368 11.772C2.41552 11.8568 2.37377 11.933 2.33828 11.9996C2.42652 12.1649 2.55329 12.3895 2.7205 12.6551C3.09628 13.2519 3.67199 14.0489 4.46772 14.8447C6.05485 16.4318 8.49932 18 11.9999 18H12.006C13.6442 18.0134 15.2619 17.6359 16.725 16.8989C17.0949 16.7126 17.5459 16.8614 17.7322 17.2313C17.9186 17.6013 17.7697 18.0522 17.3998 18.2386C15.7246 19.0824 13.8724 19.5148 11.9968 19.5C7.99899 19.4991 5.19446 17.6927 3.40706 15.9053C2.51529 15.0136 1.87224 14.1231 1.45115 13.4543C1.24024 13.1193 1.08394 12.8382 0.97907 12.638C0.926609 12.5379 0.886936 12.4578 0.85966 12.4012C0.84602 12.3728 0.835472 12.3503 0.827969 12.3341L0.818988 12.3145L0.816196 12.3083L0.815223 12.3062L0.814842 12.3053C0.81468 12.3049 0.814531 12.3046 1.49989 12C0.814239 11.6961 0.814347 11.6958 0.814461 11.6956L0.815351 11.6936L0.817067 11.6897L0.822322 11.6781C0.826637 11.6687 0.832581 11.6558 0.840173 11.6396C0.855355 11.6073 0.877141 11.562 0.905684 11.5048C0.962752 11.3905 1.04695 11.229 1.15954 11.0309C1.38449 10.6351 1.72411 10.0907 2.18881 9.48385C3.1157 8.27346 4.55702 6.79293 6.59936 5.76175C6.96911 5.57506 7.4202 5.72346 7.60689 6.09322ZM1.49989 12L0.814461 11.6956C0.728559 11.8893 0.728444 12.1109 0.814531 12.3046L1.49989 12Z" fill="white"/>
<path fill-rule="evenodd" clip-rule="evenodd" d="M9.93562 4.66967C10.6181 4.55543 11.3089 4.49868 12.0008 4.5C12.0006 4.5 12.0011 4.5 12.0008 4.5L12.0001 5.25V4.5C12.0003 4.5 12.0006 4.5 12.0008 4.5C15.9999 4.50023 18.8051 6.30691 20.5929 8.09467C21.4847 8.98644 22.1277 9.87691 22.5488 10.5457C22.7597 10.8807 22.916 11.1618 23.0209 11.362C23.0733 11.4621 23.113 11.5422 23.1403 11.5988C23.1539 11.6272 23.1645 11.6497 23.172 11.6659L23.181 11.6855L23.1838 11.6917L23.1847 11.6938L23.1851 11.6947C23.1853 11.6951 23.1854 11.6954 22.5001 12C21.8147 11.6954 21.8148 11.6952 21.8148 11.6951L21.8092 11.7074C21.8038 11.7189 21.795 11.7377 21.7826 11.7632C21.7579 11.8141 21.719 11.892 21.6655 11.9924C21.6642 11.995 21.6628 11.9975 21.6615 12C21.5733 11.8347 21.4465 11.6103 21.2795 11.3449C20.9037 10.7481 20.328 9.95106 19.5322 9.15533C17.9451 7.5682 15.5006 6 12.0001 6H11.9986C11.3904 5.9988 10.7831 6.04867 10.1833 6.14908C9.77474 6.21747 9.38812 5.94173 9.31974 5.5332C9.25135 5.12467 9.52709 4.73805 9.93562 4.66967ZM22.5001 12L23.1854 12.3046C23.2716 12.1107 23.2716 11.8893 23.1854 11.6954L22.5001 12ZM21.6615 12C21.5543 12.2007 21.3906 12.4885 21.1669 12.8306C20.7128 13.525 20.0179 14.434 19.0563 15.2941C18.7476 15.5703 18.7212 16.0444 18.9973 16.3531C19.2735 16.6619 19.7476 16.6883 20.0563 16.4121C21.1385 15.4441 21.9155 14.4266 22.4223 13.6515C22.6763 13.2631 22.8639 12.9333 22.9895 12.6975C23.0523 12.5795 23.0997 12.4849 23.1322 12.418C23.1484 12.3845 23.1609 12.358 23.1698 12.3389L23.1803 12.316L23.1835 12.3088L23.1847 12.3063L23.1851 12.3054C23.1852 12.3052 23.1854 12.3046 22.5001 12C21.8147 12.3046 21.8148 12.3049 21.815 12.3051L21.8105 12.2954C21.8062 12.2861 21.799 12.2707 21.7888 12.2496C21.7685 12.2073 21.7364 12.1424 21.6921 12.058C21.6825 12.0396 21.6723 12.0202 21.6615 12Z" fill="white"/>
<path fill-rule="evenodd" clip-rule="evenodd" d="M11.9661 8.176C12.0432 7.76903 12.4357 7.50162 12.8426 7.57873C13.8 7.76013 14.6724 8.24801 15.3282 8.96874C15.9839 9.68947 16.3875 10.6039 16.4779 11.5742C16.5163 11.9866 16.2132 12.3521 15.8007 12.3905C15.3883 12.4289 15.0228 12.1258 14.9844 11.7133C14.9242 11.0672 14.6554 10.4582 14.2187 9.97822C13.782 9.49823 13.201 9.17332 12.5634 9.05251C12.1564 8.9754 11.889 8.58298 11.9661 8.176Z" fill="white"/>
</svg>
